<?xml version="1.0" encoding="UTF-8" standalone="no"?><svg xmlns="http://www.w3.org/2000/svg" xmlns:xlink="http://www.w3.org/1999/xlink" contentStyleType="text/css" height="359px" preserveAspectRatio="none" style="width:609px;height:359px;background:#FFFFFF;" version="1.1" viewBox="0 0 609 359" width="609px" zoomAndPan="magnify"><defs/><g><!--class Strategy--><g id="elem_Strategy"><rect codeLine="1" fill="#F1F1F1" height="64.2969" id="Strategy" rx="2.5" ry="2.5" style="stroke:#181818;stroke-width:0.5;" width="280" x="164" y="164"/><ellipse cx="269.75" cy="180" fill="#B4A7E5" rx="11" ry="11" style="stroke:#181818;stroke-width:1.0;"/><path d="M270.7031,176.7813 L272.4219,176.7813 C272.8125,176.7813 273,176.75 273.125,176.6719 C273.3906,176.5156 273.5313,176.2344 273.5313,175.9375 C273.5313,175.6719 273.4219,175.4063 273.1875,175.2344 C273.0156,175.125 272.875,175.0938 272.4219,175.0938 L267.2813,175.0938 C266.8438,175.0938 266.7188,175.1094 266.5625,175.2031 C266.3125,175.3594 266.1563,175.6563 266.1563,175.9375 C266.1563,176.2188 266.2969,176.4688 266.5156,176.6406 C266.6719,176.75 266.8594,176.7813 267.2813,176.7813 L269,176.7813 L269,183.2969 L267.2813,183.2969 C266.8438,183.2969 266.7188,183.3125 266.5625,183.4219 C266.3125,183.5781 266.1563,183.8594 266.1563,184.1563 C266.1563,184.4063 266.2969,184.6719 266.5156,184.8281 C266.6719,184.9531 266.875,185 267.2813,185 L272.4219,185 C273.1719,185 273.5313,184.7188 273.5313,184.1563 C273.5313,183.875 273.4219,183.625 273.1875,183.4531 C273.0156,183.3281 272.875,183.2969 272.4219,183.2969 L270.7031,183.2969 L270.7031,176.7813 Z " fill="#000000"/><text fill="#000000" font-family="sans-serif" font-size="14" font-style="italic" lengthAdjust="spacing" textLength="60" x="290.25" y="184.8467">Strategy</text><line style="stroke:#181818;stroke-width:0.5;" x1="165" x2="443" y1="196" y2="196"/><line style="stroke:#181818;stroke-width:0.5;" x1="165" x2="443" y1="204" y2="204"/><ellipse cx="175" cy="217.6484" fill="#84BE84" rx="3" ry="3" style="stroke:#038048;stroke-width:1.0;"/><text fill="#000000" font-family="sans-serif" font-size="14" lengthAdjust="spacing" textLength="254" x="184" y="220.9951">doAlgorithm(data: string[]): string[]</text></g><!--class Context--><g id="elem_Context"><rect codeLine="5" fill="#F1F1F1" height="96.8906" id="Context" rx="2.5" ry="2.5" style="stroke:#181818;stroke-width:0.5;" width="255" x="176.5" y="7"/><ellipse cx="270.25" cy="23" fill="#ADD1B2" rx="11" ry="11" style="stroke:#181818;stroke-width:1.0;"/><path d="M272.5938,18.6719 C271.6563,18.2344 271.0625,18.0938 270.1875,18.0938 C267.5625,18.0938 265.5625,20.1719 265.5625,22.8906 L265.5625,24.0156 C265.5625,26.5938 267.6719,28.4844 270.5625,28.4844 C271.7813,28.4844 272.9375,28.1875 273.6875,27.6406 C274.2656,27.2344 274.5938,26.7813 274.5938,26.3906 C274.5938,25.9375 274.2031,25.5469 273.7344,25.5469 C273.5156,25.5469 273.3125,25.625 273.125,25.8125 C272.6719,26.2969 272.6719,26.2969 272.4844,26.3906 C272.0625,26.6563 271.375,26.7813 270.6094,26.7813 C268.5625,26.7813 267.2656,25.6875 267.2656,23.9844 L267.2656,22.8906 C267.2656,21.1094 268.5156,19.7969 270.25,19.7969 C270.8281,19.7969 271.4375,19.9531 271.9063,20.2031 C272.3906,20.4844 272.5625,20.7031 272.6563,21.1094 C272.7188,21.5156 272.75,21.6406 272.8906,21.7656 C273.0313,21.9063 273.2656,22.0156 273.4844,22.0156 C273.75,22.0156 274.0156,21.875 274.1875,21.6563 C274.2969,21.5 274.3281,21.3125 274.3281,20.8906 L274.3281,19.4688 C274.3281,19.0313 274.3125,18.9063 274.2188,18.75 C274.0625,18.4844 273.7813,18.3438 273.4844,18.3438 C273.1875,18.3438 272.9844,18.4375 272.7656,18.75 L272.5938,18.6719 Z " fill="#000000"/><text fill="#000000" font-family="sans-serif" font-size="14" lengthAdjust="spacing" textLength="59" x="290.75" y="27.8467">Context</text><line style="stroke:#181818;stroke-width:0.5;" x1="177.5" x2="430.5" y1="39" y2="39"/><rect fill="none" height="6" style="stroke:#C82930;stroke-width:1.0;" width="6" x="184.5" y="49.6484"/><text fill="#000000" font-family="sans-serif" font-size="14" lengthAdjust="spacing" textLength="137" x="196.5" y="55.9951">strategy : Strategy</text><line style="stroke:#181818;stroke-width:0.5;" x1="177.5" x2="430.5" y1="63.2969" y2="63.2969"/><ellipse cx="187.5" cy="76.9453" fill="#84BE84" rx="3" ry="3" style="stroke:#038048;stroke-width:1.0;"/><text fill="#000000" font-family="sans-serif" font-size="14" lengthAdjust="spacing" textLength="229" x="196.5" y="80.292">setStrategy(strategy: Strategy)</text><ellipse cx="187.5" cy="93.2422" fill="#84BE84" rx="3" ry="3" style="stroke:#038048;stroke-width:1.0;"/><text fill="#000000" font-family="sans-serif" font-size="14" lengthAdjust="spacing" textLength="148" x="196.5" y="96.5889">businessLogic(): void</text></g><!--class ConcreteStrategyA--><g id="elem_ConcreteStrategyA"><rect codeLine="11" fill="#F1F1F1" height="64.2969" id="ConcreteStrategyA" rx="2.5" ry="2.5" style="stroke:#181818;stroke-width:0.5;" width="280" x="7" y="288"/><ellipse cx="72.75" cy="304" fill="#ADD1B2" rx="11" ry="11" style="stroke:#181818;stroke-width:1.0;"/><path d="M75.0938,299.6719 C74.1563,299.2344 73.5625,299.0938 72.6875,299.0938 C70.0625,299.0938 68.0625,301.1719 68.0625,303.8906 L68.0625,305.0156 C68.0625,307.5938 70.1719,309.4844 73.0625,309.4844 C74.2813,309.4844 75.4375,309.1875 76.1875,308.6406 C76.7656,308.2344 77.0938,307.7813 77.0938,307.3906 C77.0938,306.9375 76.7031,306.5469 76.2344,306.5469 C76.0156,306.5469 75.8125,306.625 75.625,306.8125 C75.1719,307.2969 75.1719,307.2969 74.9844,307.3906 C74.5625,307.6563 73.875,307.7813 73.1094,307.7813 C71.0625,307.7813 69.7656,306.6875 69.7656,304.9844 L69.7656,303.8906 C69.7656,302.1094 71.0156,300.7969 72.75,300.7969 C73.3281,300.7969 73.9375,300.9531 74.4063,301.2031 C74.8906,301.4844 75.0625,301.7031 75.1563,302.1094 C75.2188,302.5156 75.25,302.6406 75.3906,302.7656 C75.5313,302.9063 75.7656,303.0156 75.9844,303.0156 C76.25,303.0156 76.5156,302.875 76.6875,302.6563 C76.7969,302.5 76.8281,302.3125 76.8281,301.8906 L76.8281,300.4688 C76.8281,300.0313 76.8125,299.9063 76.7188,299.75 C76.5625,299.4844 76.2813,299.3438 75.9844,299.3438 C75.6875,299.3438 75.4844,299.4375 75.2656,299.75 L75.0938,299.6719 Z " fill="#000000"/><text fill="#000000" font-family="sans-serif" font-size="14" lengthAdjust="spacing" textLength="140" x="93.25" y="308.8467">ConcreteStrategyA</text><line style="stroke:#181818;stroke-width:0.5;" x1="8" x2="286" y1="320" y2="320"/><line style="stroke:#181818;stroke-width:0.5;" x1="8" x2="286" y1="328" y2="328"/><ellipse cx="18" cy="341.6484" fill="#84BE84" rx="3" ry="3" style="stroke:#038048;stroke-width:1.0;"/><text fill="#000000" font-family="sans-serif" font-size="14" lengthAdjust="spacing" textLength="254" x="27" y="344.9951">doAlgorithm(data: string[]): string[]</text></g><!--class ConcreteStrategyB--><g id="elem_ConcreteStrategyB"><rect codeLine="15" fill="#F1F1F1" height="64.2969" id="ConcreteStrategyB" rx="2.5" ry="2.5" style="stroke:#181818;stroke-width:0.5;" width="280" x="322" y="288"/><ellipse cx="387.75" cy="304" fill="#ADD1B2" rx="11" ry="11" style="stroke:#181818;stroke-width:1.0;"/><path d="M390.0938,299.6719 C389.1563,299.2344 388.5625,299.0938 387.6875,299.0938 C385.0625,299.0938 383.0625,301.1719 383.0625,303.8906 L383.0625,305.0156 C383.0625,307.5938 385.1719,309.4844 388.0625,309.4844 C389.2813,309.4844 390.4375,309.1875 391.1875,308.6406 C391.7656,308.2344 392.0938,307.7813 392.0938,307.3906 C392.0938,306.9375 391.7031,306.5469 391.2344,306.5469 C391.0156,306.5469 390.8125,306.625 390.625,306.8125 C390.1719,307.2969 390.1719,307.2969 389.9844,307.3906 C389.5625,307.6563 388.875,307.7813 388.1094,307.7813 C386.0625,307.7813 384.7656,306.6875 384.7656,304.9844 L384.7656,303.8906 C384.7656,302.1094 386.0156,300.7969 387.75,300.7969 C388.3281,300.7969 388.9375,300.9531 389.4063,301.2031 C389.8906,301.4844 390.0625,301.7031 390.1563,302.1094 C390.2188,302.5156 390.25,302.6406 390.3906,302.7656 C390.5313,302.9063 390.7656,303.0156 390.9844,303.0156 C391.25,303.0156 391.5156,302.875 391.6875,302.6563 C391.7969,302.5 391.8281,302.3125 391.8281,301.8906 L391.8281,300.4688 C391.8281,300.0313 391.8125,299.9063 391.7188,299.75 C391.5625,299.4844 391.2813,299.3438 390.9844,299.3438 C390.6875,299.3438 390.4844,299.4375 390.2656,299.75 L390.0938,299.6719 Z " fill="#000000"/><text fill="#000000" font-family="sans-serif" font-size="14" lengthAdjust="spacing" textLength="140" x="408.25" y="308.8467">ConcreteStrategyB</text><line style="stroke:#181818;stroke-width:0.5;" x1="323" x2="601" y1="320" y2="320"/><line style="stroke:#181818;stroke-width:0.5;" x1="323" x2="601" y1="328" y2="328"/><ellipse cx="333" cy="341.6484" fill="#84BE84" rx="3" ry="3" style="stroke:#038048;stroke-width:1.0;"/><text fill="#000000" font-family="sans-serif" font-size="14" lengthAdjust="spacing" textLength="254" x="342" y="344.9951">doAlgorithm(data: string[]): string[]</text></g><!--link Context to Strategy--><g id="link_Context_Strategy"><path codeLine="19" d="M304,104.164 C304,122.034 304,142.035 304,158.71 " fill="none" id="Context-to-Strategy" style="stroke:#181818;stroke-width:1.0;"/><polygon fill="#181818" points="304,163.772,308,154.772,304,158.772,300,154.772,304,163.772" style="stroke:#181818;stroke-width:1.0;"/></g><!--reverse link Strategy to ConcreteStrategyA--><g id="link_Strategy_ConcreteStrategyA"><path codeLine="20" d="M248.019,240.501 C227.838,256.1834 205.487,273.5515 186.951,287.9554 " fill="none" id="Strategy-backto-ConcreteStrategyA" style="stroke:#181818;stroke-width:1.0;"/><polygon fill="none" points="243.888,234.846,263.976,228.101,252.479,245.901,243.888,234.846" style="stroke:#181818;stroke-width:1.0;"/></g><!--reverse link Strategy to ConcreteStrategyB--><g id="link_Strategy_ConcreteStrategyB"><path codeLine="21" d="M360.337,240.501 C380.647,256.1834 403.14,273.5515 421.795,287.9554 " fill="none" id="Strategy-backto-ConcreteStrategyB" style="stroke:#181818;stroke-width:1.0;"/><polygon fill="none" points="355.831,245.865,344.279,228.101,364.387,234.784,355.831,245.865" style="stroke:#181818;stroke-width:1.0;"/></g><!--SRC=[dO_12i8m44Jl-OezjaX-e8ZGUlNcKJp4P8s1ca1sAuhwxpRG68e7qTiiE_jsndd6U5GQOSjHCThRNG0iJ6Xx6wBZqxaoYbK3nD5vkzlNHOgd4BfNHB0E8-RAwLJIn87cZKn4GivZbIt5KIVBOI3daMWJhDFL-EWId9azqH4PyqtxPz8PfFiDCXK5ALUbNHQmV4Zv6VFBldi1]--></g></svg>