<?xml version="1.0" encoding="UTF-8" standalone="no"?><svg xmlns="http://www.w3.org/2000/svg" xmlns:xlink="http://www.w3.org/1999/xlink" contentStyleType="text/css" height="316px" preserveAspectRatio="none" style="width:903px;height:316px;background:#FFFFFF;" version="1.1" viewBox="0 0 903 316" width="903px" zoomAndPan="magnify"><defs/><g><!--class Subject--><g id="elem_Subject"><rect codeLine="1" fill="#F1F1F1" height="96.8906" id="Subject" rx="2.5" ry="2.5" style="stroke:#181818;stroke-width:0.5;" width="264" x="7" y="7"/><ellipse cx="108.25" cy="23" fill="#B4A7E5" rx="11" ry="11" style="stroke:#181818;stroke-width:1.0;"/><path d="M109.2031,19.7813 L110.9219,19.7813 C111.3125,19.7813 111.5,19.75 111.625,19.6719 C111.8906,19.5156 112.0313,19.2344 112.0313,18.9375 C112.0313,18.6719 111.9219,18.4063 111.6875,18.2344 C111.5156,18.125 111.375,18.0938 110.9219,18.0938 L105.7813,18.0938 C105.3438,18.0938 105.2188,18.1094 105.0625,18.2031 C104.8125,18.3594 104.6563,18.6563 104.6563,18.9375 C104.6563,19.2188 104.7969,19.4688 105.0156,19.6406 C105.1719,19.75 105.3594,19.7813 105.7813,19.7813 L107.5,19.7813 L107.5,26.2969 L105.7813,26.2969 C105.3438,26.2969 105.2188,26.3125 105.0625,26.4219 C104.8125,26.5781 104.6563,26.8594 104.6563,27.1563 C104.6563,27.4063 104.7969,27.6719 105.0156,27.8281 C105.1719,27.9531 105.375,28 105.7813,28 L110.9219,28 C111.6719,28 112.0313,27.7188 112.0313,27.1563 C112.0313,26.875 111.9219,26.625 111.6875,26.4531 C111.5156,26.3281 111.375,26.2969 110.9219,26.2969 L109.2031,26.2969 L109.2031,19.7813 Z " fill="#000000"/><text fill="#000000" font-family="sans-serif" font-size="14" font-style="italic" lengthAdjust="spacing" textLength="53" x="128.75" y="27.8467">Subject</text><line style="stroke:#181818;stroke-width:0.5;" x1="8" x2="270" y1="39" y2="39"/><line style="stroke:#181818;stroke-width:0.5;" x1="8" x2="270" y1="47" y2="47"/><ellipse cx="18" cy="60.6484" fill="#84BE84" rx="3" ry="3" style="stroke:#038048;stroke-width:1.0;"/><text fill="#000000" font-family="sans-serif" font-size="14" lengthAdjust="spacing" textLength="235" x="27" y="63.9951">attach(observer: Observer): void</text><ellipse cx="18" cy="76.9453" fill="#84BE84" rx="3" ry="3" style="stroke:#038048;stroke-width:1.0;"/><text fill="#000000" font-family="sans-serif" font-size="14" lengthAdjust="spacing" textLength="238" x="27" y="80.292">detach(observer: Observer): void</text><ellipse cx="18" cy="93.2422" fill="#84BE84" rx="3" ry="3" style="stroke:#038048;stroke-width:1.0;"/><text fill="#000000" font-family="sans-serif" font-size="14" lengthAdjust="spacing" textLength="92" x="27" y="96.5889">notify(): void</text></g><!--class ConcreteSubject--><g id="elem_ConcreteSubject"><rect codeLine="7" fill="#F1F1F1" height="145.7813" id="ConcreteSubject" rx="2.5" ry="2.5" style="stroke:#181818;stroke-width:0.5;" width="264" x="7" y="164"/><ellipse cx="73.75" cy="180" fill="#ADD1B2" rx="11" ry="11" style="stroke:#181818;stroke-width:1.0;"/><path d="M76.0938,175.6719 C75.1563,175.2344 74.5625,175.0938 73.6875,175.0938 C71.0625,175.0938 69.0625,177.1719 69.0625,179.8906 L69.0625,181.0156 C69.0625,183.5938 71.1719,185.4844 74.0625,185.4844 C75.2813,185.4844 76.4375,185.1875 77.1875,184.6406 C77.7656,184.2344 78.0938,183.7813 78.0938,183.3906 C78.0938,182.9375 77.7031,182.5469 77.2344,182.5469 C77.0156,182.5469 76.8125,182.625 76.625,182.8125 C76.1719,183.2969 76.1719,183.2969 75.9844,183.3906 C75.5625,183.6563 74.875,183.7813 74.1094,183.7813 C72.0625,183.7813 70.7656,182.6875 70.7656,180.9844 L70.7656,179.8906 C70.7656,178.1094 72.0156,176.7969 73.75,176.7969 C74.3281,176.7969 74.9375,176.9531 75.4063,177.2031 C75.8906,177.4844 76.0625,177.7031 76.1563,178.1094 C76.2188,178.5156 76.25,178.6406 76.3906,178.7656 C76.5313,178.9063 76.7656,179.0156 76.9844,179.0156 C77.25,179.0156 77.5156,178.875 77.6875,178.6563 C77.7969,178.5 77.8281,178.3125 77.8281,177.8906 L77.8281,176.4688 C77.8281,176.0313 77.8125,175.9063 77.7188,175.75 C77.5625,175.4844 77.2813,175.3438 76.9844,175.3438 C76.6875,175.3438 76.4844,175.4375 76.2656,175.75 L76.0938,175.6719 Z " fill="#000000"/><text fill="#000000" font-family="sans-serif" font-size="14" lengthAdjust="spacing" textLength="122" x="94.25" y="184.8467">ConcreteSubject</text><line style="stroke:#181818;stroke-width:0.5;" x1="8" x2="270" y1="196" y2="196"/><ellipse cx="18" cy="209.6484" fill="none" rx="3" ry="3" style="stroke:#038048;stroke-width:1.0;"/><text fill="#000000" font-family="sans-serif" font-size="14" lengthAdjust="spacing" textLength="107" x="27" y="212.9951">state : number</text><rect fill="none" height="6" style="stroke:#C82930;stroke-width:1.0;" width="6" x="15" y="222.9453"/><text fill="#000000" font-family="sans-serif" font-size="14" lengthAdjust="spacing" textLength="160" x="27" y="229.292">observers : Observer[]</text><line style="stroke:#181818;stroke-width:0.5;" x1="8" x2="270" y1="236.5938" y2="236.5938"/><ellipse cx="18" cy="250.2422" fill="#84BE84" rx="3" ry="3" style="stroke:#038048;stroke-width:1.0;"/><text fill="#000000" font-family="sans-serif" font-size="14" lengthAdjust="spacing" textLength="235" x="27" y="253.5889">attach(observer: Observer): void</text><ellipse cx="18" cy="266.5391" fill="#84BE84" rx="3" ry="3" style="stroke:#038048;stroke-width:1.0;"/><text fill="#000000" font-family="sans-serif" font-size="14" lengthAdjust="spacing" textLength="238" x="27" y="269.8857">detach(observer: Observer): void</text><ellipse cx="18" cy="282.8359" fill="#84BE84" rx="3" ry="3" style="stroke:#038048;stroke-width:1.0;"/><text fill="#000000" font-family="sans-serif" font-size="14" lengthAdjust="spacing" textLength="92" x="27" y="286.1826">notify(): void</text><ellipse cx="18" cy="299.1328" fill="#84BE84" rx="3" ry="3" style="stroke:#038048;stroke-width:1.0;"/><text fill="#000000" font-family="sans-serif" font-size="14" lengthAdjust="spacing" textLength="187" x="27" y="302.4795">someBusinessLogic(): void</text></g><!--class Observer--><g id="elem_Observer"><rect codeLine="16" fill="#F1F1F1" height="64.2969" id="Observer" rx="2.5" ry="2.5" style="stroke:#181818;stroke-width:0.5;" width="243" x="445.5" y="23.5"/><ellipse cx="530.25" cy="39.5" fill="#B4A7E5" rx="11" ry="11" style="stroke:#181818;stroke-width:1.0;"/><path d="M531.2031,36.2813 L532.9219,36.2813 C533.3125,36.2813 533.5,36.25 533.625,36.1719 C533.8906,36.0156 534.0313,35.7344 534.0313,35.4375 C534.0313,35.1719 533.9219,34.9063 533.6875,34.7344 C533.5156,34.625 533.375,34.5938 532.9219,34.5938 L527.7813,34.5938 C527.3438,34.5938 527.2188,34.6094 527.0625,34.7031 C526.8125,34.8594 526.6563,35.1563 526.6563,35.4375 C526.6563,35.7188 526.7969,35.9688 527.0156,36.1406 C527.1719,36.25 527.3594,36.2813 527.7813,36.2813 L529.5,36.2813 L529.5,42.7969 L527.7813,42.7969 C527.3438,42.7969 527.2188,42.8125 527.0625,42.9219 C526.8125,43.0781 526.6563,43.3594 526.6563,43.6563 C526.6563,43.9063 526.7969,44.1719 527.0156,44.3281 C527.1719,44.4531 527.375,44.5 527.7813,44.5 L532.9219,44.5 C533.6719,44.5 534.0313,44.2188 534.0313,43.6563 C534.0313,43.375 533.9219,43.125 533.6875,42.9531 C533.5156,42.8281 533.375,42.7969 532.9219,42.7969 L531.2031,42.7969 L531.2031,36.2813 Z " fill="#000000"/><text fill="#000000" font-family="sans-serif" font-size="14" font-style="italic" lengthAdjust="spacing" textLength="65" x="550.75" y="44.3467">Observer</text><line style="stroke:#181818;stroke-width:0.5;" x1="446.5" x2="687.5" y1="55.5" y2="55.5"/><line style="stroke:#181818;stroke-width:0.5;" x1="446.5" x2="687.5" y1="63.5" y2="63.5"/><ellipse cx="456.5" cy="77.1484" fill="#84BE84" rx="3" ry="3" style="stroke:#038048;stroke-width:1.0;"/><text fill="#000000" font-family="sans-serif" font-size="14" lengthAdjust="spacing" textLength="217" x="465.5" y="80.4951">update(subject: Subject): void</text></g><!--class ConcreteObserverA--><g id="elem_ConcreteObserverA"><rect codeLine="20" fill="#F1F1F1" height="64.2969" id="ConcreteObserverA" rx="2.5" ry="2.5" style="stroke:#181818;stroke-width:0.5;" width="243" x="375.5" y="205"/><ellipse cx="421.25" cy="221" fill="#ADD1B2" rx="11" ry="11" style="stroke:#181818;stroke-width:1.0;"/><path d="M423.5938,216.6719 C422.6563,216.2344 422.0625,216.0938 421.1875,216.0938 C418.5625,216.0938 416.5625,218.1719 416.5625,220.8906 L416.5625,222.0156 C416.5625,224.5938 418.6719,226.4844 421.5625,226.4844 C422.7813,226.4844 423.9375,226.1875 424.6875,225.6406 C425.2656,225.2344 425.5938,224.7813 425.5938,224.3906 C425.5938,223.9375 425.2031,223.5469 424.7344,223.5469 C424.5156,223.5469 424.3125,223.625 424.125,223.8125 C423.6719,224.2969 423.6719,224.2969 423.4844,224.3906 C423.0625,224.6563 422.375,224.7813 421.6094,224.7813 C419.5625,224.7813 418.2656,223.6875 418.2656,221.9844 L418.2656,220.8906 C418.2656,219.1094 419.5156,217.7969 421.25,217.7969 C421.8281,217.7969 422.4375,217.9531 422.9063,218.2031 C423.3906,218.4844 423.5625,218.7031 423.6563,219.1094 C423.7188,219.5156 423.75,219.6406 423.8906,219.7656 C424.0313,219.9063 424.2656,220.0156 424.4844,220.0156 C424.75,220.0156 425.0156,219.875 425.1875,219.6563 C425.2969,219.5 425.3281,219.3125 425.3281,218.8906 L425.3281,217.4688 C425.3281,217.0313 425.3125,216.9063 425.2188,216.75 C425.0625,216.4844 424.7813,216.3438 424.4844,216.3438 C424.1875,216.3438 423.9844,216.4375 423.7656,216.75 L423.5938,216.6719 Z " fill="#000000"/><text fill="#000000" font-family="sans-serif" font-size="14" lengthAdjust="spacing" textLength="143" x="441.75" y="225.8467">ConcreteObserverA</text><line style="stroke:#181818;stroke-width:0.5;" x1="376.5" x2="617.5" y1="237" y2="237"/><line style="stroke:#181818;stroke-width:0.5;" x1="376.5" x2="617.5" y1="245" y2="245"/><ellipse cx="386.5" cy="258.6484" fill="#84BE84" rx="3" ry="3" style="stroke:#038048;stroke-width:1.0;"/><text fill="#000000" font-family="sans-serif" font-size="14" lengthAdjust="spacing" textLength="217" x="395.5" y="261.9951">update(subject: Subject): void</text></g><!--class ConcreteObserverB--><g id="elem_ConcreteObserverB"><rect codeLine="24" fill="#F1F1F1" height="64.2969" id="ConcreteObserverB" rx="2.5" ry="2.5" style="stroke:#181818;stroke-width:0.5;" width="243" x="653.5" y="205"/><ellipse cx="699.25" cy="221" fill="#ADD1B2" rx="11" ry="11" style="stroke:#181818;stroke-width:1.0;"/><path d="M701.5938,216.6719 C700.6563,216.2344 700.0625,216.0938 699.1875,216.0938 C696.5625,216.0938 694.5625,218.1719 694.5625,220.8906 L694.5625,222.0156 C694.5625,224.5938 696.6719,226.4844 699.5625,226.4844 C700.7813,226.4844 701.9375,226.1875 702.6875,225.6406 C703.2656,225.2344 703.5938,224.7813 703.5938,224.3906 C703.5938,223.9375 703.2031,223.5469 702.7344,223.5469 C702.5156,223.5469 702.3125,223.625 702.125,223.8125 C701.6719,224.2969 701.6719,224.2969 701.4844,224.3906 C701.0625,224.6563 700.375,224.7813 699.6094,224.7813 C697.5625,224.7813 696.2656,223.6875 696.2656,221.9844 L696.2656,220.8906 C696.2656,219.1094 697.5156,217.7969 699.25,217.7969 C699.8281,217.7969 700.4375,217.9531 700.9063,218.2031 C701.3906,218.4844 701.5625,218.7031 701.6563,219.1094 C701.7188,219.5156 701.75,219.6406 701.8906,219.7656 C702.0313,219.9063 702.2656,220.0156 702.4844,220.0156 C702.75,220.0156 703.0156,219.875 703.1875,219.6563 C703.2969,219.5 703.3281,219.3125 703.3281,218.8906 L703.3281,217.4688 C703.3281,217.0313 703.3125,216.9063 703.2188,216.75 C703.0625,216.4844 702.7813,216.3438 702.4844,216.3438 C702.1875,216.3438 701.9844,216.4375 701.7656,216.75 L701.5938,216.6719 Z " fill="#000000"/><text fill="#000000" font-family="sans-serif" font-size="14" lengthAdjust="spacing" textLength="143" x="719.75" y="225.8467">ConcreteObserverB</text><line style="stroke:#181818;stroke-width:0.5;" x1="654.5" x2="895.5" y1="237" y2="237"/><line style="stroke:#181818;stroke-width:0.5;" x1="654.5" x2="895.5" y1="245" y2="245"/><ellipse cx="664.5" cy="258.6484" fill="#84BE84" rx="3" ry="3" style="stroke:#038048;stroke-width:1.0;"/><text fill="#000000" font-family="sans-serif" font-size="14" lengthAdjust="spacing" textLength="217" x="673.5" y="261.9951">update(subject: Subject): void</text></g><!--reverse link Subject to ConcreteSubject--><g id="link_Subject_ConcreteSubject"><path codeLine="28" d="M139,124.345 C139,137.234 139,150.764 139,163.783 " fill="none" id="Subject-backto-ConcreteSubject" style="stroke:#181818;stroke-width:1.0;"/><polygon fill="none" points="132,124.131,139,104.131,146,124.131,132,124.131" style="stroke:#181818;stroke-width:1.0;"/></g><!--reverse link Observer to ConcreteObserverA--><g id="link_Observer_ConcreteObserverA"><path codeLine="29" d="M547.462,106.602 C535.181,138.094 519.721,177.737 509.171,204.791 " fill="none" id="Observer-backto-ConcreteObserverA" style="stroke:#181818;stroke-width:1.0;"/><polygon fill="none" points="541.019,103.857,554.807,87.767,554.062,108.943,541.019,103.857" style="stroke:#181818;stroke-width:1.0;"/></g><!--reverse link Observer to ConcreteObserverB--><g id="link_Observer_ConcreteObserverB"><path codeLine="30" d="M618.425,100.879 C655.833,133.161 705.555,176.07 738.836,204.791 " fill="none" id="Observer-backto-ConcreteObserverB" style="stroke:#181818;stroke-width:1.0;"/><polygon fill="none" points="613.799,106.133,603.231,87.767,622.946,95.534,613.799,106.133" style="stroke:#181818;stroke-width:1.0;"/></g><!--SRC=[jP312i8m44Jl-OezLgG_4BnOhu87Z-8XJRSQqKIocuAe_swhJQs2L11lONPdydQCPVIbqWZBaEzGyra0Z1Mpqjl4vOI-GYzXqRv64YfdYcQdmE4TwzYKfoGgLo7qNX71p5djaR7_9x5Y10as77BqjPB6Q89d-6hzHxw6mXqm2sGi4itTnkW-lEdAYbbtyd0iQlI47iV8sEJ7gwDv-fCx-zBTAZ2vfEbxyIA6lKuxm85vTWC0]--></g></svg>