<?xml version="1.0" encoding="UTF-8" standalone="no"?><svg xmlns="http://www.w3.org/2000/svg" xmlns:xlink="http://www.w3.org/1999/xlink" contentStyleType="text/css" height="343px" preserveAspectRatio="none" style="width:216px;height:343px;background:#FFFFFF;" version="1.1" viewBox="0 0 216 343" width="216px" zoomAndPan="magnify"><defs/><g><!--class Target--><g id="elem_Target"><rect codeLine="1" fill="#F1F1F1" height="64.2969" id="Target" rx="2.5" ry="2.5" style="stroke:#181818;stroke-width:0.5;" width="142" x="37" y="7"/><ellipse cx="79.9" cy="23" fill="#ADD1B2" rx="11" ry="11" style="stroke:#181818;stroke-width:1.0;"/><path d="M82.2438,18.6719 C81.3063,18.2344 80.7125,18.0938 79.8375,18.0938 C77.2125,18.0938 75.2125,20.1719 75.2125,22.8906 L75.2125,24.0156 C75.2125,26.5938 77.3219,28.4844 80.2125,28.4844 C81.4313,28.4844 82.5875,28.1875 83.3375,27.6406 C83.9156,27.2344 84.2438,26.7813 84.2438,26.3906 C84.2438,25.9375 83.8531,25.5469 83.3844,25.5469 C83.1656,25.5469 82.9625,25.625 82.775,25.8125 C82.3219,26.2969 82.3219,26.2969 82.1344,26.3906 C81.7125,26.6563 81.025,26.7813 80.2594,26.7813 C78.2125,26.7813 76.9156,25.6875 76.9156,23.9844 L76.9156,22.8906 C76.9156,21.1094 78.1656,19.7969 79.9,19.7969 C80.4781,19.7969 81.0875,19.9531 81.5563,20.2031 C82.0406,20.4844 82.2125,20.7031 82.3063,21.1094 C82.3688,21.5156 82.4,21.6406 82.5406,21.7656 C82.6813,21.9063 82.9156,22.0156 83.1344,22.0156 C83.4,22.0156 83.6656,21.875 83.8375,21.6563 C83.9469,21.5 83.9781,21.3125 83.9781,20.8906 L83.9781,19.4688 C83.9781,19.0313 83.9625,18.9063 83.8688,18.75 C83.7125,18.4844 83.4313,18.3438 83.1344,18.3438 C82.8375,18.3438 82.6344,18.4375 82.4156,18.75 L82.2438,18.6719 Z " fill="#000000"/><text fill="#000000" font-family="sans-serif" font-size="14" lengthAdjust="spacing" textLength="48" x="100.1" y="27.8467">Target</text><line style="stroke:#181818;stroke-width:0.5;" x1="38" x2="178" y1="39" y2="39"/><line style="stroke:#181818;stroke-width:0.5;" x1="38" x2="178" y1="47" y2="47"/><ellipse cx="48" cy="60.6484" fill="#84BE84" rx="3" ry="3" style="stroke:#038048;stroke-width:1.0;"/><text fill="#000000" font-family="sans-serif" font-size="14" lengthAdjust="spacing" textLength="116" x="57" y="63.9951">request(): string</text></g><!--class Adaptee--><g id="elem_Adaptee"><rect codeLine="5" fill="#F1F1F1" height="64.2969" id="Adaptee" rx="2.5" ry="2.5" style="stroke:#181818;stroke-width:0.5;" width="202" x="7" y="272"/><ellipse cx="72.75" cy="288" fill="#ADD1B2" rx="11" ry="11" style="stroke:#181818;stroke-width:1.0;"/><path d="M75.0938,283.6719 C74.1563,283.2344 73.5625,283.0938 72.6875,283.0938 C70.0625,283.0938 68.0625,285.1719 68.0625,287.8906 L68.0625,289.0156 C68.0625,291.5938 70.1719,293.4844 73.0625,293.4844 C74.2813,293.4844 75.4375,293.1875 76.1875,292.6406 C76.7656,292.2344 77.0938,291.7813 77.0938,291.3906 C77.0938,290.9375 76.7031,290.5469 76.2344,290.5469 C76.0156,290.5469 75.8125,290.625 75.625,290.8125 C75.1719,291.2969 75.1719,291.2969 74.9844,291.3906 C74.5625,291.6563 73.875,291.7813 73.1094,291.7813 C71.0625,291.7813 69.7656,290.6875 69.7656,288.9844 L69.7656,287.8906 C69.7656,286.1094 71.0156,284.7969 72.75,284.7969 C73.3281,284.7969 73.9375,284.9531 74.4063,285.2031 C74.8906,285.4844 75.0625,285.7031 75.1563,286.1094 C75.2188,286.5156 75.25,286.6406 75.3906,286.7656 C75.5313,286.9063 75.7656,287.0156 75.9844,287.0156 C76.25,287.0156 76.5156,286.875 76.6875,286.6563 C76.7969,286.5 76.8281,286.3125 76.8281,285.8906 L76.8281,284.4688 C76.8281,284.0313 76.8125,283.9063 76.7188,283.75 C76.5625,283.4844 76.2813,283.3438 75.9844,283.3438 C75.6875,283.3438 75.4844,283.4375 75.2656,283.75 L75.0938,283.6719 Z " fill="#000000"/><text fill="#000000" font-family="sans-serif" font-size="14" lengthAdjust="spacing" textLength="62" x="93.25" y="292.8467">Adaptee</text><line style="stroke:#181818;stroke-width:0.5;" x1="8" x2="208" y1="304" y2="304"/><line style="stroke:#181818;stroke-width:0.5;" x1="8" x2="208" y1="312" y2="312"/><ellipse cx="18" cy="325.6484" fill="#84BE84" rx="3" ry="3" style="stroke:#038048;stroke-width:1.0;"/><text fill="#000000" font-family="sans-serif" font-size="14" lengthAdjust="spacing" textLength="176" x="27" y="328.9951">specificRequest(): string</text></g><!--class Adapter--><g id="elem_Adapter"><rect codeLine="9" fill="#F1F1F1" height="80.5938" id="Adapter" rx="2.5" ry="2.5" style="stroke:#181818;stroke-width:0.5;" width="161" x="27.5" y="131"/><ellipse cx="74.25" cy="147" fill="#ADD1B2" rx="11" ry="11" style="stroke:#181818;stroke-width:1.0;"/><path d="M76.5938,142.6719 C75.6563,142.2344 75.0625,142.0938 74.1875,142.0938 C71.5625,142.0938 69.5625,144.1719 69.5625,146.8906 L69.5625,148.0156 C69.5625,150.5938 71.6719,152.4844 74.5625,152.4844 C75.7813,152.4844 76.9375,152.1875 77.6875,151.6406 C78.2656,151.2344 78.5938,150.7813 78.5938,150.3906 C78.5938,149.9375 78.2031,149.5469 77.7344,149.5469 C77.5156,149.5469 77.3125,149.625 77.125,149.8125 C76.6719,150.2969 76.6719,150.2969 76.4844,150.3906 C76.0625,150.6563 75.375,150.7813 74.6094,150.7813 C72.5625,150.7813 71.2656,149.6875 71.2656,147.9844 L71.2656,146.8906 C71.2656,145.1094 72.5156,143.7969 74.25,143.7969 C74.8281,143.7969 75.4375,143.9531 75.9063,144.2031 C76.3906,144.4844 76.5625,144.7031 76.6563,145.1094 C76.7188,145.5156 76.75,145.6406 76.8906,145.7656 C77.0313,145.9063 77.2656,146.0156 77.4844,146.0156 C77.75,146.0156 78.0156,145.875 78.1875,145.6563 C78.2969,145.5 78.3281,145.3125 78.3281,144.8906 L78.3281,143.4688 C78.3281,143.0313 78.3125,142.9063 78.2188,142.75 C78.0625,142.4844 77.7813,142.3438 77.4844,142.3438 C77.1875,142.3438 76.9844,142.4375 76.7656,142.75 L76.5938,142.6719 Z " fill="#000000"/><text fill="#000000" font-family="sans-serif" font-size="14" lengthAdjust="spacing" textLength="59" x="94.75" y="151.8467">Adapter</text><line style="stroke:#181818;stroke-width:0.5;" x1="28.5" x2="187.5" y1="163" y2="163"/><rect fill="none" height="6" style="stroke:#C82930;stroke-width:1.0;" width="6" x="35.5" y="173.6484"/><text fill="#000000" font-family="sans-serif" font-size="14" lengthAdjust="spacing" textLength="135" x="47.5" y="179.9951">adaptee : Adaptee</text><line style="stroke:#181818;stroke-width:0.5;" x1="28.5" x2="187.5" y1="187.2969" y2="187.2969"/><ellipse cx="38.5" cy="200.9453" fill="#84BE84" rx="3" ry="3" style="stroke:#038048;stroke-width:1.0;"/><text fill="#000000" font-family="sans-serif" font-size="14" lengthAdjust="spacing" textLength="116" x="47.5" y="204.292">request(): string</text></g><!--link Adapter to Adaptee--><g id="link_Adapter_Adaptee"><path codeLine="14" d="M108,212.008 C108,229.413 108,249.727 108,266.7406 " fill="none" id="Adapter-to-Adaptee" style="stroke:#181818;stroke-width:1.0;"/><polygon fill="#181818" points="108,271.9078,112,262.9078,108,266.9078,104,262.9078,108,271.9078" style="stroke:#181818;stroke-width:1.0;"/></g><!--reverse link Target to Adapter--><g id="link_Target_Adapter"><path codeLine="15" d="M108,91.41 C108,104.435 108,118.23 108,130.589 " fill="none" id="Target-backto-Adapter" style="stroke:#181818;stroke-width:1.0;"/><polygon fill="none" points="101.0001,91.258,108,71.258,115,91.258,101.0001,91.258" style="stroke:#181818;stroke-width:1.0;"/></g><!--SRC=[Iyv9B2vM24aiIayjgUPIKD0kIYqiJIqkqT2qKYWkAShCI-UgvU9A1gjoJ4aiA4bD1IihBaXDpapBJ0uYfBm8f5mt4Q9LmGfc24wheBeKT7Nju6eXpbEmgT7LXPaA0000]--></g></svg>